{"title":"Beverly Hills Chihuahua 3 2012 BRRip x264 AAC-UNiQUE","uid":7671438,"size":1550481336,"categoryP":"video","categoryS":"movies","magnet":"?xt=urn:btih:8490095ab89df1591aac3e25ff649cbe877a62a7&amp;dn=Beverly+Hills+Chihuahua+3+2012+BRRip+x264+AAC-UNiQUE&amp;tr=udp%3A%2F%2Ftracker.openbittorrent.com%3A80&amp;tr=udp%3A%2F%2Fopen.demonii.com%3A1337&amp;tr=udp%3A%2F%2Ftracker.coppersurfer.tk%3A6969&amp;tr=udp%3A%2F%2Fexodus.desync.com%3A6969","seeders":1,"leechers":1,"uploader":"hiest","files":-1,"time":1348590458,"description":"##     ## ##    ## ####  #######  ##     ## ######## \n##     ## ###   ##  ##  ##     ## ##     ## ##       \n##     ## ####  ##  ##  ##     ## ##     ## ##       \n##     ## ## ## ##  ##  ##     ## ##     ## ######   \n##     ## ##  ####  ##  ##  ## ## ##     ## ##       \n##     ## ##   ###  ##  ##    ##  ##     ## ##       \n #######  ##    ## ####  ##### ##  #######  ######## \n\n\n#############Credits To DiNGiE &amp; Unique#############\n\n\nGeneral\nComplete name : Beverly Hills Chihuahua 3 2012 BRRip x264 AAC-UNiQUE.mp4\nFormat : MPEG-4\nFormat profile : Base Media\nCodec ID : isom\nFile size : 1.41 GiB\nDuration : 1h 29mn\nOverall bit rate mode : Variable\nOverall bit rate : 2 268 Kbps\nEncoded date : UTC 2012-09-25 13:52:42\n\nVideo\nID : 1\nFormat : AVC\nFormat/Info : Advanced Video Codec\nFormat profile : &lt;a class=&quot;__cf_email__&quot; href=&quot;/cdn-cgi/l/email-protection&quot; data-cfemail=&quot;e2aa8b858aa2aed6ccd3&quot;&gt;[email&amp;#160;protected]&lt;/a&gt;&lt;script cf-hash='f9e31' type=&quot;text/javascript&quot;&gt;\n/* &lt;![CDATA[ */!function(){try{var t=&quot;currentScript&quot;in document?document.currentScript:function(){for(var t=document.getElementsByTagName(&quot;script&quot;),e=t.length;e--;)if(t[e].getAttribute(&quot;cf-hash&quot;))return t[e]}();if(t&amp;&amp;t.previousSibling){var e,r,n,i,c=t.previousSibling,a=c.getAttribute(&quot;data-cfemail&quot;);if(a){for(e=&quot;&quot;,r=parseInt(a.substr(0,2),16),n=2;a.length-n;n+=2)i=parseInt(a.substr(n,2),16)^r,e+=String.fromCharCode(i);e=document.createTextNode(e),c.parentNode.replaceChild(e,c)}}}catch(u){}}();/* ]]&gt; */&lt;/script&gt;\nFormat settings, CABAC : Yes\nFormat settings, ReFrames : 3 frames\nCodec ID : avc1\nCodec ID/Info : Advanced Video Coding\nDuration : 1h 29mn\nBit rate mode : Variable\nBit rate : 1 931 Kbps\nMaximum bit rate : 40.0 Mbps\nWidth : 720 pixels\nHeight : 400 pixels\nDisplay aspect ratio : 16:9\nFrame rate mode : Constant\nFrame rate : 23.976 fps\nColor space : YUV\nChroma subsampling : 4:2:0\nBit depth : 8 bits\nScan type : Progressive\nBits/(Pixel*Frame) : 0.280\nStream size : 1.20 GiB (85%)\nWriting library : x264 core 128 r2216 198a7ea\n\nAudio\nID : 2\nFormat : AAC\nFormat/Info : Advanced Audio Codec\nFormat profile : LC\nCodec ID : 40\nDuration : 1h 28mn\nBit rate mode : Variable\nBit rate : 335 Kbps\nMaximum bit rate : 418 Kbps\nChannel(s) : 6 channels\nChannel positions : Front: L C R, Side: L R, LFE\nSampling rate : 48.0 KHz\nCompression mode : Lossy\nStream size : 213 MiB (15%)\nLanguage : English\nEncoded date : UTC 2012-09-25 13:53:16\n\nSource : 720p.BluRay.x264-PFa - Thanks! \n\nStoryline\nWhen Papi &amp; co move into a luxurious hotel, his youngest pup Rosa feels neglected and he must show her how special she is.\n\niMDB: &lt;a href=&quot;\nhttp://www.imdb.com/title/tt2224075&quot; rel=&quot;nofollow&quot; target=&quot;_NEW&quot;&gt;\nhttp://www.imdb.com/title/tt2224075&lt;/a&gt;\n\nScreen Shots:\n    &lt;a href=&quot;\nhttp://i.imgur.com/HkgXY.png&quot; rel=&quot;nofollow&quot; target=&quot;_NEW&quot;&gt;\nhttp://i.imgur.com/HkgXY.png&lt;/a&gt;\n &lt;a href=&quot;\nhttp://i.imgur.com/cV9Tl.png&quot; rel=&quot;nofollow&quot; target=&quot;_NEW&quot;&gt;\nhttp://i.imgur.com/cV9Tl.png&lt;/a&gt;\n &lt;a href=&quot;\nhttp://i.imgur.com/EGTnG.png&quot; rel=&quot;nofollow&quot; target=&quot;_NEW&quot;&gt;\nhttp://i.imgur.com/EGTnG.png&lt;/a&gt;\n &lt;a href=&quot;\nhttp://i.imgur.com/AKQMs.png&quot; rel=&quot;nofollow&quot; target=&quot;_NEW&quot;&gt;\nhttp://i.imgur.com/AKQMs.png&lt;/a&gt;\n &lt;a href=&quot;\nhttp://i.imgur.com/PmpfU.png&quot; rel=&quot;nofollow&quot; target=&quot;_NEW&quot;&gt;\nhttp://i.imgur.com/PmpfU.png&lt;/a&gt;\n &lt;a href=&quot;\nhttp://i.imgur.com/uKhBX.png&quot; rel=&quot;nofollow&quot; target=&quot;_NEW&quot;&gt;\nhttp://i.imgur.com/uKhBX.png&lt;/a&gt;\n\n\n#############Credits To DiNGiE &amp; Unique#############\n\n\n##     ## ##    ## ####  #######  ##     ## ######## \n##     ## ###   ##  ##  ##     ## ##     ## ##       \n##     ## ####  ##  ##  ##     ## ##     ## ##       \n##     ## ## ## ##  ##  ##     ## ##     ## ######   \n##     ## ##  ####  ##  ##  ## ## ##     ## ##       \n##     ## ##   ###  ##  ##    ##  ##     ## ##       \n #######  ##    ## ####  ##### ##  #######  ######## ","torrent":{"xt":"urn:btih:8490095ab89df1591aac3e25ff649cbe877a62a7","amp;dn":"Beverly+Hills+Chihuahua+3+2012+BRRip+x264+AAC-UNiQUE","amp;tr":["udp%3A%2F%2Ftracker.openbittorrent.com%3A80","udp%3A%2F%2Fopen.demonii.com%3A1337","udp%3A%2F%2Ftracker.coppersurfer.tk%3A6969","udp%3A%2F%2Fexodus.desync.com%3A6969"],"infoHash":"8490095ab89df1591aac3e25ff649cbe877a62a7","infoHashBuffer":{"type":"Buffer","data":[132,144,9,90,184,157,241,89,26,172,62,37,255,100,156,190,135,122,98,167]},"announce":[],"urlList":[]}}